<svg width="22" height="26" viewBox="0 0 22 26" fill="none" xmlns="http://www.w3.org/2000/svg">
<path d="M21.1927 1.79334H15.3334L14.8744 0.880258C14.7772 0.68505 14.6274 0.520845 14.4419 0.406116C14.2565 0.291388 14.0427 0.230687 13.8246 0.230844H8.24353C8.02594 0.230007 7.81252 0.290481 7.62771 0.405337C7.44291 0.520194 7.29419 0.684786 7.19861 0.880258L6.73962 1.79334H0.880249C0.673049 1.79334 0.474335 1.87565 0.327822 2.02217C0.181309 2.16868 0.098999 2.36739 0.098999 2.57459L0.098999 4.13709C0.098999 4.34429 0.181309 4.54301 0.327822 4.68952C0.474335 4.83603 0.673049 4.91834 0.880249 4.91834H21.1927C21.3999 4.91834 21.5987 4.83603 21.7452 4.68952C21.8917 4.54301 21.974 4.34429 21.974 4.13709V2.57459C21.974 2.36739 21.8917 2.16868 21.7452 2.02217C21.5987 1.87565 21.3999 1.79334 21.1927 1.79334V1.79334ZM2.69666 23.0336C2.73392 23.6286 2.99654 24.1871 3.43106 24.5953C3.86558 25.0035 4.43933 25.2308 5.03552 25.2308H17.0375C17.6337 25.2308 18.2074 25.0035 18.6419 24.5953C19.0765 24.1871 19.3391 23.6286 19.3763 23.0336L20.4115 6.48084H1.6615L2.69666 23.0336Z" fill="black"/>
</svg>
