<svg width="18" height="18" viewBox="0 0 18 18" fill="none" xmlns="http://www.w3.org/2000/svg">
<path d="M8.93463 0.17041C4.17544 0.17041 0.319458 4.13186 0.319458 9.02121C0.319458 13.9106 4.17544 17.872 8.93463 17.872C13.6938 17.872 17.5498 13.9106 17.5498 9.02121C17.5498 4.13186 13.6938 0.17041 8.93463 0.17041ZM10.9182 12.665L7.85426 10.3774C7.74657 10.2953 7.68404 10.1668 7.68404 10.0312V4.02479C7.68404 3.78925 7.87163 3.59653 8.10091 3.59653H9.76836C9.99763 3.59653 10.1852 3.78925 10.1852 4.02479V8.93913L12.3911 10.5879C12.5787 10.7271 12.6169 10.9948 12.4814 11.1875L11.5018 12.5722C11.3663 12.7614 11.1058 12.8042 10.9182 12.665Z" fill="black"/>
</svg>
